<svg width="209" height="208" viewBox="0 0 209 208" fill="none" xmlns="http://www.w3.org/2000/svg">
<g filter="url(#filter0_d_84_3)">
<path d="M204.5 100C204.5 155.228 159.728 200 104.5 200C49.2715 200 4.5 155.228 4.5 100C4.5 44.7715 49.2715 0 104.5 0C159.728 0 204.5 44.7715 204.5 100Z" fill="black"/>
<path d="M187.657 44.4384C194.84 55.1676 200.001 67.3643 202.597 80.4838L187.882 83.3948C188.942 88.7533 189.5 94.304 189.5 100C189.5 105.696 188.942 111.247 187.882 116.605L202.597 119.516C200.001 132.636 194.84 144.832 187.657 155.562L175.192 147.217C168.982 156.493 160.993 164.482 151.717 170.692L160.062 183.157C149.332 190.34 137.136 195.501 124.016 198.097L121.105 183.382C115.747 184.442 110.196 185 104.5 185C98.804 185 93.2533 184.442 87.8948 183.382L84.9838 198.097C71.8643 195.501 59.6676 190.34 48.9384 183.157L57.2832 170.692C48.0074 164.482 40.018 156.493 33.808 147.217L21.3435 155.562C14.1605 144.832 8.99883 132.636 6.4034 119.516L21.1182 116.605C20.0582 111.247 19.5 105.696 19.5 100C19.5 94.304 20.0582 88.7533 21.1182 83.3948L6.40341 80.4838C8.99884 67.3643 14.1605 55.1676 21.3435 44.4384L33.808 52.7832C40.018 43.5074 48.0074 35.518 57.2832 29.308L48.9384 16.8435C59.6676 9.66046 71.8643 4.49883 84.9838 1.9034L87.8948 16.6182C93.2533 15.5582 98.804 15 104.5 15C110.196 15 115.747 15.5582 121.105 16.6182L124.016 1.90341C137.136 4.49884 149.332 9.66047 160.062 16.8435L151.717 29.308C160.993 35.518 168.982 43.5074 175.192 52.7832L187.657 44.4384Z" stroke="#FE0000" stroke-width="30" stroke-dasharray="45 45"/>
</g>
<defs>
<filter id="filter0_d_84_3" x="0.5" y="0" width="208" height="208" filterUnits="userSpaceOnUse" color-interpolation-filters="sRGB">
<feFlood flood-opacity="0" result="BackgroundImageFix"/>
<feColorMatrix in="SourceAlpha" type="matrix" values="0 0 0 0 0 0 0 0 0 0 0 0 0 0 0 0 0 0 127 0" result="hardAlpha"/>
<feOffset dy="4"/>
<feGaussianBlur stdDeviation="2"/>
<feComposite in2="hardAlpha" operator="out"/>
<feColorMatrix type="matrix" values="0 0 0 0 0 0 0 0 0 0 0 0 0 0 0 0 0 0 0.25 0"/>
<feBlend mode="normal" in2="BackgroundImageFix" result="effect1_dropShadow_84_3"/>
<feBlend mode="normal" in="SourceGraphic" in2="effect1_dropShadow_84_3" result="shape"/>
</filter>
</defs>
</svg>
