<svg width="106" height="98" viewBox="0 0 106 98" fill="none" xmlns="http://www.w3.org/2000/svg">
<path d="M46.312 46.88C47.208 48.032 48.2 48.896 49.288 49.472C50.376 49.984 51.688 50.24 53.224 50.24C55.464 50.24 57.224 49.728 58.504 48.704C59.848 47.616 60.52 46.144 60.52 44.288C60.52 42.432 59.848 40.992 58.504 39.968C57.16 38.944 55.4 38.432 53.224 38.432C52.008 38.432 51.016 38.592 50.248 38.912C49.48 39.168 48.712 39.52 47.944 39.968C47.24 40.48 46.632 40.736 46.12 40.736H27.016C26.44 40.736 25.928 40.544 25.48 40.16C25.096 39.712 24.904 39.2 24.904 38.624C24.904 38.304 24.904 38.144 24.904 38.144L28.648 4.83199C28.776 3.61599 29.256 2.65599 30.088 1.95199C30.92 1.18399 31.944 0.799988 33.16 0.799988H78.76C79.464 0.799988 80.072 1.05599 80.584 1.56799C81.096 2.07999 81.352 2.68799 81.352 3.39199V16.928C81.352 17.632 81.096 18.24 80.584 18.752C80.072 19.264 79.464 19.52 78.76 19.52H48.328L47.56 26.144C49.48 24.928 51.464 24.096 53.512 23.648C55.56 23.136 58.344 22.88 61.864 22.88C66.088 22.88 70.056 23.84 73.768 25.76C77.544 27.68 80.552 30.336 82.792 33.728C85.096 37.056 86.248 40.8 86.248 44.96C86.248 49.504 84.872 53.6 82.12 57.248C79.432 60.896 75.592 63.776 70.6 65.888C65.608 67.936 59.784 68.96 53.128 68.96C46.6 68.96 40.936 68 36.136 66.08C31.336 64.096 27.656 61.472 25.096 58.208C22.6 54.944 21.352 51.36 21.352 47.456C21.352 46.88 21.544 46.4 21.928 46.016C22.376 45.568 22.888 45.344 23.464 45.344H42.856C44.328 45.344 45.48 45.856 46.312 46.88Z" fill="black"/>
<path d="M1.128 85.48C1.128 83.848 1.8 82.52 3.144 81.496C4.504 80.472 6.28 79.96 8.472 79.96C10.68 79.96 12.48 80.496 13.872 81.568C15.28 82.64 15.984 83.76 15.984 84.928C15.984 85.072 15.928 85.2 15.816 85.312C15.72 85.408 15.608 85.456 15.48 85.456H10.68C10.312 85.456 9.976 85.32 9.672 85.048C9.368 84.776 8.96 84.64 8.448 84.64C7.68 84.64 7.296 84.864 7.296 85.312C7.296 85.552 7.48 85.752 7.848 85.912C8.232 86.072 8.936 86.216 9.96 86.344C12.344 86.648 14.04 87.208 15.048 88.024C16.072 88.824 16.584 90.048 16.584 91.696C16.584 93.328 15.832 94.664 14.328 95.704C12.84 96.728 10.888 97.24 8.472 97.24C6.056 97.24 4.16 96.744 2.784 95.752C1.408 94.76 0.720001 93.552 0.720001 92.128C0.720001 91.984 0.768001 91.864 0.864001 91.768C0.976001 91.656 1.104 91.6 1.248 91.6H5.808C6.144 91.6 6.512 91.76 6.912 92.08C7.328 92.4 7.896 92.56 8.616 92.56C9.816 92.56 10.416 92.336 10.416 91.888C10.416 91.6 10.2 91.384 9.768 91.24C9.336 91.08 8.52 90.92 7.32 90.76C3.192 90.216 1.128 88.456 1.128 85.48Z" fill="black"/>
<path d="M24.6169 92.32H32.0089C32.1849 92.32 32.3369 92.384 32.4649 92.512C32.5929 92.64 32.6569 92.792 32.6569 92.968V96.352C32.6569 96.528 32.5929 96.68 32.4649 96.808C32.3369 96.936 32.1849 97 32.0089 97H19.5049C19.3289 97 19.1769 96.936 19.0489 96.808C18.9209 96.68 18.8569 96.528 18.8569 96.352V80.848C18.8569 80.672 18.9209 80.52 19.0489 80.392C19.1769 80.264 19.3289 80.2 19.5049 80.2H31.8169C31.9929 80.2 32.1449 80.264 32.2729 80.392C32.4009 80.52 32.4649 80.672 32.4649 80.848V84.232C32.4649 84.408 32.4009 84.56 32.2729 84.688C32.1449 84.816 31.9929 84.88 31.8169 84.88H24.6169V86.392H31.2889C31.4649 86.392 31.6169 86.456 31.7449 86.584C31.8729 86.712 31.9369 86.864 31.9369 87.04V90.16C31.9369 90.336 31.8729 90.488 31.7449 90.616C31.6169 90.744 31.4649 90.808 31.2889 90.808H24.6169V92.32Z" fill="black"/>
<path d="M41.3044 86.584V90.616C41.3044 91.912 41.8964 92.56 43.0804 92.56C43.9924 92.56 44.5924 92.128 44.8804 91.264C44.9604 90.992 45.0564 90.808 45.1684 90.712C45.2964 90.616 45.4964 90.568 45.7684 90.568H50.6644C50.8084 90.568 50.9284 90.624 51.0244 90.736C51.1364 90.832 51.1924 90.952 51.1924 91.096C51.1924 92.488 50.7924 93.656 49.9924 94.6C48.5204 96.36 46.2244 97.24 43.1044 97.24C40.6564 97.24 38.7044 96.704 37.2484 95.632C35.7924 94.544 35.0644 92.88 35.0644 90.64V86.56C35.0644 84.368 35.8084 82.72 37.2964 81.616C38.7844 80.512 40.7204 79.96 43.1044 79.96C46.2244 79.96 48.5204 80.84 49.9924 82.6C50.7924 83.544 51.1924 84.712 51.1924 86.104C51.1924 86.248 51.1364 86.376 51.0244 86.488C50.9284 86.584 50.8084 86.632 50.6644 86.632H45.7684C45.5124 86.632 45.3204 86.584 45.1924 86.488C45.0804 86.392 44.9764 86.208 44.8804 85.936C44.5764 85.072 43.9764 84.64 43.0804 84.64C41.8964 84.64 41.3044 85.288 41.3044 86.584Z" fill="black"/>
<path d="M55.1781 81.736C56.6501 80.552 58.5941 79.96 61.0101 79.96C63.4261 79.96 65.3621 80.56 66.8181 81.76C68.2901 82.944 69.0261 84.616 69.0261 86.776V90.52C69.0261 92.712 68.2981 94.384 66.8421 95.536C65.4021 96.672 63.4581 97.24 61.0101 97.24C58.5621 97.24 56.6101 96.672 55.1541 95.536C53.7141 94.384 52.9941 92.712 52.9941 90.52V86.776C52.9941 84.6 53.7221 82.92 55.1781 81.736ZM59.7141 92.08C60.0341 92.4 60.4661 92.56 61.0101 92.56C61.5541 92.56 61.9861 92.4 62.3061 92.08C62.6261 91.76 62.7861 91.272 62.7861 90.616V86.584C62.7861 85.944 62.6261 85.464 62.3061 85.144C61.9861 84.808 61.5541 84.64 61.0101 84.64C60.4661 84.64 60.0341 84.808 59.7141 85.144C59.3941 85.464 59.2341 85.944 59.2341 86.584V90.616C59.2341 91.272 59.3941 91.76 59.7141 92.08Z" fill="black"/>
<path d="M81.7896 80.2H86.1336C86.3096 80.2 86.4616 80.264 86.5896 80.392C86.7176 80.52 86.7816 80.672 86.7816 80.848V96.352C86.7816 96.528 86.7176 96.68 86.5896 96.808C86.4616 96.936 86.3096 97 86.1336 97H82.3416C81.9256 97 81.5976 96.816 81.3576 96.448L77.3016 90.328V96.352C77.3016 96.528 77.2376 96.68 77.1096 96.808C76.9816 96.936 76.8296 97 76.6536 97H72.3096C72.1336 97 71.9816 96.936 71.8536 96.808C71.7256 96.68 71.6616 96.528 71.6616 96.352V80.848C71.6616 80.672 71.7256 80.52 71.8536 80.392C71.9816 80.264 72.1336 80.2 72.3096 80.2H76.1016C76.5496 80.2 76.8776 80.384 77.0856 80.752L81.1416 87.4V80.848C81.1416 80.672 81.2056 80.52 81.3336 80.392C81.4616 80.264 81.6136 80.2 81.7896 80.2Z" fill="black"/>
<path d="M90.5439 80.2H97.4559C99.7919 80.2 101.712 80.784 103.216 81.952C104.736 83.104 105.496 84.72 105.496 86.8V90.376C105.496 92.552 104.76 94.2 103.288 95.32C101.816 96.44 99.8799 97 97.4799 97H90.5439C90.3679 97 90.2159 96.936 90.0879 96.808C89.9599 96.68 89.8959 96.528 89.8959 96.352V80.848C89.8959 80.672 89.9599 80.52 90.0879 80.392C90.2159 80.264 90.3679 80.2 90.5439 80.2ZM95.8959 84.88V92.32H97.4559C97.9999 92.32 98.4319 92.16 98.7519 91.84C99.0879 91.504 99.2559 91.016 99.2559 90.376V86.8C99.2559 85.52 98.6559 84.88 97.4559 84.88H95.8959Z" fill="black"/>
</svg>
