<svg width="107" height="93" viewBox="0 0 107 93" fill="none" xmlns="http://www.w3.org/2000/svg">
<path d="M46.312 46.88C47.208 48.032 48.2 48.896 49.288 49.472C50.376 49.984 51.688 50.24 53.224 50.24C55.464 50.24 57.224 49.728 58.504 48.704C59.848 47.616 60.52 46.144 60.52 44.288C60.52 42.432 59.848 40.992 58.504 39.968C57.16 38.944 55.4 38.432 53.224 38.432C52.008 38.432 51.016 38.592 50.248 38.912C49.48 39.168 48.712 39.52 47.944 39.968C47.24 40.48 46.632 40.736 46.12 40.736H27.016C26.44 40.736 25.928 40.544 25.48 40.16C25.096 39.712 24.904 39.2 24.904 38.624C24.904 38.304 24.904 38.144 24.904 38.144L28.648 4.83199C28.776 3.61599 29.256 2.65599 30.088 1.95199C30.92 1.18399 31.944 0.799988 33.16 0.799988H78.76C79.464 0.799988 80.072 1.05599 80.584 1.56799C81.096 2.07999 81.352 2.68799 81.352 3.39199V16.928C81.352 17.632 81.096 18.24 80.584 18.752C80.072 19.264 79.464 19.52 78.76 19.52H48.328L47.56 26.144C49.48 24.928 51.464 24.096 53.512 23.648C55.56 23.136 58.344 22.88 61.864 22.88C66.088 22.88 70.056 23.84 73.768 25.76C77.544 27.68 80.552 30.336 82.792 33.728C85.096 37.056 86.248 40.8 86.248 44.96C86.248 49.504 84.872 53.6 82.12 57.248C79.432 60.896 75.592 63.776 70.6 65.888C65.608 67.936 59.784 68.96 53.128 68.96C46.6 68.96 40.936 68 36.136 66.08C31.336 64.096 27.656 61.472 25.096 58.208C22.6 54.944 21.352 51.36 21.352 47.456C21.352 46.88 21.544 46.4 21.928 46.016C22.376 45.568 22.888 45.344 23.464 45.344H42.856C44.328 45.344 45.48 45.856 46.312 46.88Z" fill="black"/>
<path d="M9.01599 80.8H11.544C11.6613 80.8 11.7627 80.8427 11.848 80.928C11.9333 81.0133 11.976 81.1147 11.976 81.232V91.568C11.976 91.6853 11.9333 91.7867 11.848 91.872C11.7627 91.9573 11.6613 92 11.544 92H8.64799C8.53066 92 8.42933 91.9573 8.34399 91.872C8.25866 91.7867 8.21599 91.6853 8.21599 91.568V87.184L7.15999 88.912C6.98933 89.1787 6.79199 89.312 6.56799 89.312H5.44799C5.22399 89.312 5.02666 89.1787 4.85599 88.912L3.79999 87.184V91.568C3.79999 91.6853 3.75733 91.7867 3.67199 91.872C3.58666 91.9573 3.48533 92 3.36799 92H0.471993C0.35466 92 0.253327 91.9573 0.167993 91.872C0.08266 91.7867 0.0399933 91.6853 0.0399933 91.568V81.232C0.0399933 81.1147 0.08266 81.0133 0.167993 80.928C0.253327 80.8427 0.35466 80.8 0.471993 80.8H2.99999C3.29866 80.8 3.52799 80.944 3.68799 81.232L6.00799 85.072L8.32799 81.232C8.48799 80.944 8.71733 80.8 9.01599 80.8Z" fill="black"/>
<path d="M17.7516 92H14.4876C14.3703 92 14.269 91.9573 14.1836 91.872C14.0983 91.7867 14.0556 91.6853 14.0556 91.568V81.232C14.0556 81.1147 14.0983 81.0133 14.1836 80.928C14.269 80.8427 14.3703 80.8 14.4876 80.8H17.7516C17.869 80.8 17.9703 80.8427 18.0556 80.928C18.141 81.0133 18.1836 81.1147 18.1836 81.232V91.568C18.1836 91.6853 18.141 91.7867 18.0556 91.872C17.9703 91.9573 17.869 92 17.7516 92Z" fill="black"/>
<path d="M19.9707 84.32C19.9707 83.232 20.4187 82.3467 21.3147 81.664C22.2214 80.9813 23.4054 80.64 24.8667 80.64C26.3387 80.64 27.5387 80.9973 28.4667 81.712C29.4054 82.4267 29.8747 83.1733 29.8747 83.952C29.8747 84.048 29.8374 84.1333 29.7627 84.208C29.6987 84.272 29.6241 84.304 29.5387 84.304H26.3387C26.0934 84.304 25.8694 84.2133 25.6667 84.032C25.4641 83.8507 25.1921 83.76 24.8507 83.76C24.3387 83.76 24.0827 83.9093 24.0827 84.208C24.0827 84.368 24.2054 84.5013 24.4507 84.608C24.7067 84.7147 25.1761 84.8107 25.8587 84.896C27.4481 85.0987 28.5787 85.472 29.2507 86.016C29.9334 86.5493 30.2747 87.3653 30.2747 88.464C30.2747 89.552 29.7734 90.4427 28.7707 91.136C27.7787 91.8187 26.4774 92.16 24.8667 92.16C23.2561 92.16 21.9921 91.8293 21.0747 91.168C20.1574 90.5067 19.6987 89.7013 19.6987 88.752C19.6987 88.656 19.7307 88.576 19.7947 88.512C19.8694 88.4373 19.9547 88.4 20.0507 88.4H23.0907C23.3147 88.4 23.5601 88.5067 23.8267 88.72C24.1041 88.9333 24.4827 89.04 24.9627 89.04C25.7627 89.04 26.1627 88.8907 26.1627 88.592C26.1627 88.4 26.0187 88.256 25.7307 88.16C25.4427 88.0533 24.8987 87.9467 24.0987 87.84C21.3467 87.4773 19.9707 86.304 19.9707 84.32Z" fill="black"/>
<path d="M31.502 84.32C31.502 83.232 31.95 82.3467 32.846 81.664C33.7527 80.9813 34.9367 80.64 36.398 80.64C37.87 80.64 39.07 80.9973 39.998 81.712C40.9367 82.4267 41.406 83.1733 41.406 83.952C41.406 84.048 41.3687 84.1333 41.294 84.208C41.23 84.272 41.1553 84.304 41.07 84.304H37.87C37.6247 84.304 37.4007 84.2133 37.198 84.032C36.9953 83.8507 36.7233 83.76 36.382 83.76C35.87 83.76 35.614 83.9093 35.614 84.208C35.614 84.368 35.7367 84.5013 35.982 84.608C36.238 84.7147 36.7073 84.8107 37.39 84.896C38.9793 85.0987 40.11 85.472 40.782 86.016C41.4647 86.5493 41.806 87.3653 41.806 88.464C41.806 89.552 41.3047 90.4427 40.302 91.136C39.31 91.8187 38.0087 92.16 36.398 92.16C34.7873 92.16 33.5233 91.8293 32.606 91.168C31.6887 90.5067 31.23 89.7013 31.23 88.752C31.23 88.656 31.262 88.576 31.326 88.512C31.4007 88.4373 31.486 88.4 31.582 88.4H34.622C34.846 88.4 35.0913 88.5067 35.358 88.72C35.6353 88.9333 36.014 89.04 36.494 89.04C37.294 89.04 37.694 88.8907 37.694 88.592C37.694 88.4 37.55 88.256 37.262 88.16C36.974 88.0533 36.43 87.9467 35.63 87.84C32.878 87.4773 31.502 86.304 31.502 84.32Z" fill="black"/>
<path d="M47.0172 92H43.7532C43.6359 92 43.5346 91.9573 43.4492 91.872C43.3639 91.7867 43.3212 91.6853 43.3212 91.568V81.232C43.3212 81.1147 43.3639 81.0133 43.4492 80.928C43.5346 80.8427 43.6359 80.8 43.7532 80.8H47.0172C47.1346 80.8 47.2359 80.8427 47.3212 80.928C47.4066 81.0133 47.4492 81.1147 47.4492 81.232V91.568C47.4492 91.6853 47.4066 91.7867 47.3212 91.872C47.2359 91.9573 47.1346 92 47.0172 92Z" fill="black"/>
<path d="M49.9564 80.8H54.7244C56.2604 80.8 57.4604 81.1307 58.3244 81.792C59.1884 82.4533 59.6204 83.4293 59.6204 84.72C59.6204 86.0107 59.1884 86.9653 58.3244 87.584C57.471 88.2027 56.271 88.512 54.7244 88.512H53.6844V91.568C53.6844 91.6853 53.6417 91.7867 53.5564 91.872C53.471 91.9573 53.3697 92 53.2524 92H49.9564C49.839 92 49.7377 91.9573 49.6524 91.872C49.567 91.7867 49.5244 91.6853 49.5244 91.568V81.232C49.5244 81.1147 49.567 81.0133 49.6524 80.928C49.7377 80.8427 49.839 80.8 49.9564 80.8ZM53.6044 83.776V85.552H54.7244C54.9164 85.552 55.087 85.4827 55.2364 85.344C55.3857 85.1947 55.4604 84.9867 55.4604 84.72C55.4604 84.4533 55.4017 84.2293 55.2844 84.048C55.167 83.8667 54.9804 83.776 54.7244 83.776H53.6044Z" fill="black"/>
<path d="M61.5657 80.8H66.3337C67.8697 80.8 69.0697 81.1307 69.9337 81.792C70.7977 82.4533 71.2297 83.4293 71.2297 84.72C71.2297 86.0107 70.7977 86.9653 69.9337 87.584C69.0804 88.2027 67.8804 88.512 66.3337 88.512H65.2937V91.568C65.2937 91.6853 65.2511 91.7867 65.1657 91.872C65.0804 91.9573 64.9791 92 64.8617 92H61.5657C61.4484 92 61.3471 91.9573 61.2617 91.872C61.1764 91.7867 61.1337 91.6853 61.1337 91.568V81.232C61.1337 81.1147 61.1764 81.0133 61.2617 80.928C61.3471 80.8427 61.4484 80.8 61.5657 80.8ZM65.2137 83.776V85.552H66.3337C66.5257 85.552 66.6964 85.4827 66.8457 85.344C66.9951 85.1947 67.0697 84.9867 67.0697 84.72C67.0697 84.4533 67.0111 84.2293 66.8937 84.048C66.7764 83.8667 66.5897 83.776 66.3337 83.776H65.2137Z" fill="black"/>
<path d="M76.4391 92H73.1751C73.0578 92 72.9564 91.9573 72.8711 91.872C72.7858 91.7867 72.7431 91.6853 72.7431 91.568V81.232C72.7431 81.1147 72.7858 81.0133 72.8711 80.928C72.9564 80.8427 73.0578 80.8 73.1751 80.8H76.4391C76.5565 80.8 76.6578 80.8427 76.7431 80.928C76.8285 81.0133 76.8711 81.1147 76.8711 81.232V91.568C76.8711 91.6853 76.8285 91.7867 76.7431 91.872C76.6578 91.9573 76.5565 92 76.4391 92Z" fill="black"/>
<path d="M79.3782 80.8H84.1462C85.6822 80.8 86.8822 81.1307 87.7462 81.792C88.6102 82.4533 89.0422 83.4293 89.0422 84.72C89.0422 86.0107 88.6102 86.9653 87.7462 87.584C86.8929 88.2027 85.6929 88.512 84.1462 88.512H83.1062V91.568C83.1062 91.6853 83.0636 91.7867 82.9782 91.872C82.8929 91.9573 82.7916 92 82.6742 92H79.3782C79.2609 92 79.1596 91.9573 79.0742 91.872C78.9889 91.7867 78.9462 91.6853 78.9462 91.568V81.232C78.9462 81.1147 78.9889 81.0133 79.0742 80.928C79.1596 80.8427 79.2609 80.8 79.3782 80.8ZM83.0262 83.776V85.552H84.1462C84.3382 85.552 84.5089 85.4827 84.6582 85.344C84.8076 85.1947 84.8822 84.9867 84.8822 84.72C84.8822 84.4533 84.8236 84.2293 84.7062 84.048C84.5889 83.8667 84.4022 83.776 84.1462 83.776H83.0262Z" fill="black"/>
<path d="M90.9876 80.8H95.7556C97.2916 80.8 98.4916 81.1307 99.3556 81.792C100.22 82.4533 100.652 83.4293 100.652 84.72C100.652 86.0107 100.22 86.9653 99.3556 87.584C98.5023 88.2027 97.3023 88.512 95.7556 88.512H94.7156V91.568C94.7156 91.6853 94.6729 91.7867 94.5876 91.872C94.5023 91.9573 94.4009 92 94.2836 92H90.9876C90.8703 92 90.7689 91.9573 90.6836 91.872C90.5983 91.7867 90.5556 91.6853 90.5556 91.568V81.232C90.5556 81.1147 90.5983 81.0133 90.6836 80.928C90.7689 80.8427 90.8703 80.8 90.9876 80.8ZM94.6356 83.776V85.552H95.7556C95.9476 85.552 96.1183 85.4827 96.2676 85.344C96.4169 85.1947 96.4916 84.9867 96.4916 84.72C96.4916 84.4533 96.433 84.2293 96.3156 84.048C96.1983 83.8667 96.0116 83.776 95.7556 83.776H94.6356Z" fill="black"/>
<path d="M105.861 92H102.597C102.48 92 102.378 91.9573 102.293 91.872C102.208 91.7867 102.165 91.6853 102.165 91.568V81.232C102.165 81.1147 102.208 81.0133 102.293 80.928C102.378 80.8427 102.48 80.8 102.597 80.8H105.861C105.978 80.8 106.08 80.8427 106.165 80.928C106.25 81.0133 106.293 81.1147 106.293 81.232V91.568C106.293 91.6853 106.25 91.7867 106.165 91.872C106.08 91.9573 105.978 92 105.861 92Z" fill="black"/>
</svg>
