<svg width="62" height="70" viewBox="0 0 62 70" fill="none" xmlns="http://www.w3.org/2000/svg">
<path d="M25.336 47.264C26.232 48.416 27.064 49.248 27.832 49.76C28.6 50.208 29.752 50.432 31.288 50.432C32.888 50.432 34.232 49.92 35.32 48.896C36.472 47.808 37.048 46.4 37.048 44.672C37.048 42.944 36.504 41.504 35.416 40.352C34.392 39.2 33.048 38.624 31.384 38.624C29.72 38.624 28.312 39.008 27.16 39.776C26.072 40.544 25.368 40.928 25.048 40.928H5.944C5.368 40.928 4.856 40.736 4.408 40.352C4.024 39.904 3.832 39.392 3.832 38.816V38.336L7.672 4.064C7.928 1.888 9.176 0.799995 11.416 0.799995H54.328C55.032 0.799995 55.64 1.056 56.152 1.568C56.664 2.08 56.92 2.688 56.92 3.392V16.928C56.92 17.632 56.664 18.24 56.152 18.752C55.64 19.264 55.032 19.52 54.328 19.52H26.296L25.528 26.336C28.728 24.16 33.176 23.072 38.872 23.072C44.632 23.072 49.88 25.216 54.616 29.504C59.416 33.728 61.816 39.104 61.816 45.632C61.816 52.096 59.128 57.632 53.752 62.24C48.376 66.848 40.824 69.152 31.096 69.152C21.368 69.152 13.784 67.104 8.344 63.008C2.968 58.848 0.28 53.728 0.28 47.648C0.28 47.072 0.472 46.592 0.856 46.208C1.304 45.76 1.816 45.536 2.392 45.536H21.784C23.256 45.536 24.44 46.112 25.336 47.264Z" fill="#E22977"/>
</svg>
