<svg width="64" height="69" viewBox="0 0 64 69" fill="none" xmlns="http://www.w3.org/2000/svg">
<path d="M63.392 46.976C63.392 53.568 60.448 58.88 54.56 62.912C48.672 66.944 41.152 68.96 32 68.96C26.56 68.96 21.696 68.288 17.408 66.944C13.184 65.6 9.92 63.872 7.616 61.76C3.072 57.6 0.8 53.344 0.8 48.992C0.8 48.416 0.992 47.936 1.376 47.552C1.824 47.104 2.336 46.88 2.912 46.88H22.208C23.36 46.88 24.512 47.456 25.664 48.608C26.816 49.76 28.864 50.336 31.808 50.336C36.224 50.336 38.432 48.64 38.432 45.248C38.432 42.432 36.192 41.024 31.712 41.024H20.096C19.392 41.024 18.784 40.768 18.272 40.256C17.76 39.744 17.504 39.136 17.504 38.432V30.656C17.504 28.864 18.144 27.584 19.424 26.816L32.768 19.52H7.52C6.816 19.52 6.208 19.264 5.696 18.752C5.184 18.24 4.928 17.632 4.928 16.928V3.392C4.928 2.688 5.184 2.08 5.696 1.568C6.208 1.056 6.816 0.799995 7.52 0.799995H56.672C57.376 0.799995 57.984 1.056 58.496 1.568C59.008 2.08 59.264 2.688 59.264 3.392V15.584C59.264 17.248 58.624 18.528 57.344 19.424L46.112 27.104C57.632 29.984 63.392 36.608 63.392 46.976Z" fill="#E22977"/>
</svg>
