<svg width="67" height="68" viewBox="0 0 67 68" fill="none" xmlns="http://www.w3.org/2000/svg">
<path d="M55.136 37.76H63.488C64.256 37.76 64.896 38.016 65.408 38.528C65.92 39.04 66.176 39.648 66.176 40.352V54.656C66.176 55.36 65.92 55.968 65.408 56.48C64.896 56.992 64.288 57.248 63.584 57.248H55.136V65.408C55.136 66.112 54.88 66.72 54.368 67.232C53.856 67.744 53.248 68 52.544 68H34.688C33.984 68 33.376 67.744 32.864 67.232C32.352 66.72 32.096 66.112 32.096 65.408V57.248H3.392C2.688 57.248 2.08 56.992 1.568 56.48C1.056 55.968 0.8 55.36 0.8 54.656V40.928C0.8 39.84 1.152 38.848 1.856 37.952L29.024 2.432C29.92 1.344 31.104 0.799995 32.576 0.799995H52.544C53.248 0.799995 53.856 1.056 54.368 1.568C54.88 2.08 55.136 2.688 55.136 3.392V37.76ZM32.768 38.816V24.992L22.688 38.816H32.768Z" fill="#E22977"/>
</svg>
