<svg width="49" height="68" viewBox="0 0 49 68" fill="none" xmlns="http://www.w3.org/2000/svg">
<path d="M48.192 3.392V65.408C48.192 66.112 47.936 66.72 47.424 67.232C46.912 67.744 46.304 68 45.6 68H26.784C26.08 68 25.472 67.744 24.96 67.232C24.448 66.72 24.192 66.112 24.192 65.408V26.624L13.44 34.88C12.928 35.264 12.352 35.456 11.712 35.456C11.136 35.456 10.496 35.008 9.792 34.112L1.344 23.168C1.088 22.72 0.96 22.304 0.96 21.92C0.96 20.768 1.376 19.936 2.208 19.424L25.344 1.472C25.984 1.024 26.688 0.799995 27.456 0.799995H45.6C46.304 0.799995 46.912 1.056 47.424 1.568C47.936 2.08 48.192 2.688 48.192 3.392Z" fill="#E22977"/>
</svg>
