<svg width="63" height="69" viewBox="0 0 63 69" fill="none" xmlns="http://www.w3.org/2000/svg">
<path d="M59.84 49.224C60.544 49.224 61.152 49.48 61.664 49.992C62.176 50.504 62.432 51.112 62.432 51.816V66.408C62.432 67.112 62.176 67.72 61.664 68.232C61.152 68.744 60.544 69 59.84 69H3.392C2.688 69 2.08 68.744 1.568 68.232C1.056 67.72 0.8 67.112 0.8 66.408V56.424C0.8 54.12 1.6 52.392 3.2 51.24C16.768 41.448 24.992 35.304 27.872 32.808C32.416 28.84 34.688 25.64 34.688 23.208C34.688 21.224 34.176 20.04 33.152 19.656C32.64 19.464 32.064 19.368 31.424 19.368C30.848 19.368 30.336 19.432 29.888 19.56C29.504 19.624 29.152 19.752 28.832 19.944C28.512 20.072 28.224 20.264 27.968 20.52C27.712 20.776 27.488 21 27.296 21.192C27.168 21.384 27.008 21.672 26.816 22.056C26.624 22.44 26.496 22.728 26.432 22.92C26.112 23.688 25.952 24.136 25.952 24.264C25.44 25.736 24.16 26.472 22.112 26.472H4.064C3.488 26.472 2.976 26.28 2.528 25.896C2.144 25.448 1.952 24.936 1.952 24.36C1.952 17.256 4.704 11.496 10.208 7.08C15.776 2.664 22.848 0.455996 31.424 0.455996C40.064 0.455996 46.944 2.376 52.064 6.216C57.248 9.992 59.84 15.24 59.84 21.96C59.84 27.016 58.08 31.592 54.56 35.688C51.04 39.784 45.664 44.296 38.432 49.224H59.84Z" fill="#E22977"/>
</svg>
