<svg width="457" height="456" viewBox="0 0 457 456" fill="none" xmlns="http://www.w3.org/2000/svg">
<path d="M419.199 228C419.199 333.21 333.909 418.5 228.699 418.5C123.488 418.5 38.1987 333.21 38.1987 228C38.1987 122.79 123.488 37.5 228.699 37.5C333.909 37.5 419.199 122.79 419.199 228Z" fill="#D9D9D9" stroke="#FE0000" stroke-width="75"/>
<path d="M351.5 228C351.5 295.655 296.655 350.5 229 350.5C161.345 350.5 106.5 295.655 106.5 228C106.5 160.345 161.345 105.5 229 105.5C296.655 105.5 351.5 160.345 351.5 228Z" fill="#D9D9D9" stroke="#FF9900" stroke-width="65"/>
<path d="M299 228C299 266.66 267.66 298 229 298C190.34 298 159 266.66 159 228C159 189.34 190.34 158 229 158C267.66 158 299 189.34 299 228Z" fill="black" stroke="#05C405" stroke-width="60"/>
</svg>
