<svg width="107" height="94" viewBox="0 0 107 94" fill="none" xmlns="http://www.w3.org/2000/svg">
<path d="M82.368 49.32C83.072 49.32 83.68 49.576 84.192 50.088C84.704 50.6 84.96 51.208 84.96 51.912V66.408C84.96 67.112 84.704 67.72 84.192 68.232C83.68 68.744 83.072 69 82.368 69H24.48C23.776 69 23.168 68.744 22.656 68.232C22.144 67.72 21.888 67.112 21.888 66.408V54.6C21.888 53.64 22.016 52.712 22.272 51.816C22.528 50.92 23.232 50.12 24.384 49.416C35.264 42.568 43.392 37.096 48.768 33C54.208 28.904 56.928 25.736 56.928 23.496C56.928 22.28 56.704 21.352 56.256 20.712C55.808 20.008 54.816 19.656 53.28 19.656C51.488 19.656 50.24 20.104 49.536 21C48.832 21.896 48.352 22.824 48.096 23.784C47.904 24.744 47.744 25.384 47.616 25.704C47.424 26.216 47.136 26.536 46.752 26.664C46.432 26.728 46.08 26.76 45.696 26.76C45.312 26.76 45.056 26.76 44.928 26.76H25.44C24.8 26.76 24.224 26.536 23.712 26.088C23.264 25.576 23.04 25 23.04 24.36C23.04 19.624 24.288 15.496 26.784 11.976C29.344 8.392 32.96 5.64 37.632 3.72C42.304 1.8 47.776 0.839996 54.048 0.839996C63.392 0.839996 70.464 2.696 75.264 6.408C80.064 10.12 82.464 15.4 82.464 22.248C82.464 25.448 81.44 28.456 79.392 31.272C77.408 34.088 74.88 36.68 71.808 39.048C68.8 41.416 64.672 44.328 59.424 47.784L57.12 49.32H82.368Z" fill="black"/>
<path d="M9.01599 81.8H11.544C11.6613 81.8 11.7627 81.8427 11.848 81.928C11.9333 82.0133 11.976 82.1147 11.976 82.232V92.568C11.976 92.6853 11.9333 92.7867 11.848 92.872C11.7627 92.9573 11.6613 93 11.544 93H8.64799C8.53066 93 8.42933 92.9573 8.34399 92.872C8.25866 92.7867 8.21599 92.6853 8.21599 92.568V88.184L7.15999 89.912C6.98933 90.1787 6.79199 90.312 6.56799 90.312H5.44799C5.22399 90.312 5.02666 90.1787 4.85599 89.912L3.79999 88.184V92.568C3.79999 92.6853 3.75733 92.7867 3.67199 92.872C3.58666 92.9573 3.48533 93 3.36799 93H0.471993C0.35466 93 0.253327 92.9573 0.167993 92.872C0.08266 92.7867 0.0399933 92.6853 0.0399933 92.568V82.232C0.0399933 82.1147 0.08266 82.0133 0.167993 81.928C0.253327 81.8427 0.35466 81.8 0.471993 81.8H2.99999C3.29866 81.8 3.52799 81.944 3.68799 82.232L6.00799 86.072L8.32799 82.232C8.48799 81.944 8.71733 81.8 9.01599 81.8Z" fill="black"/>
<path d="M17.7516 93H14.4876C14.3703 93 14.269 92.9573 14.1836 92.872C14.0983 92.7867 14.0556 92.6853 14.0556 92.568V82.232C14.0556 82.1147 14.0983 82.0133 14.1836 81.928C14.269 81.8427 14.3703 81.8 14.4876 81.8H17.7516C17.869 81.8 17.9703 81.8427 18.0556 81.928C18.141 82.0133 18.1836 82.1147 18.1836 82.232V92.568C18.1836 92.6853 18.141 92.7867 18.0556 92.872C17.9703 92.9573 17.869 93 17.7516 93Z" fill="black"/>
<path d="M19.9707 85.32C19.9707 84.232 20.4187 83.3467 21.3147 82.664C22.2214 81.9813 23.4054 81.64 24.8667 81.64C26.3387 81.64 27.5387 81.9973 28.4667 82.712C29.4054 83.4267 29.8747 84.1733 29.8747 84.952C29.8747 85.048 29.8374 85.1333 29.7627 85.208C29.6987 85.272 29.6241 85.304 29.5387 85.304H26.3387C26.0934 85.304 25.8694 85.2133 25.6667 85.032C25.4641 84.8507 25.1921 84.76 24.8507 84.76C24.3387 84.76 24.0827 84.9093 24.0827 85.208C24.0827 85.368 24.2054 85.5013 24.4507 85.608C24.7067 85.7147 25.1761 85.8107 25.8587 85.896C27.4481 86.0987 28.5787 86.472 29.2507 87.016C29.9334 87.5493 30.2747 88.3653 30.2747 89.464C30.2747 90.552 29.7734 91.4427 28.7707 92.136C27.7787 92.8187 26.4774 93.16 24.8667 93.16C23.2561 93.16 21.9921 92.8293 21.0747 92.168C20.1574 91.5067 19.6987 90.7013 19.6987 89.752C19.6987 89.656 19.7307 89.576 19.7947 89.512C19.8694 89.4373 19.9547 89.4 20.0507 89.4H23.0907C23.3147 89.4 23.5601 89.5067 23.8267 89.72C24.1041 89.9333 24.4827 90.04 24.9627 90.04C25.7627 90.04 26.1627 89.8907 26.1627 89.592C26.1627 89.4 26.0187 89.256 25.7307 89.16C25.4427 89.0533 24.8987 88.9467 24.0987 88.84C21.3467 88.4773 19.9707 87.304 19.9707 85.32Z" fill="black"/>
<path d="M31.502 85.32C31.502 84.232 31.95 83.3467 32.846 82.664C33.7527 81.9813 34.9367 81.64 36.398 81.64C37.87 81.64 39.07 81.9973 39.998 82.712C40.9367 83.4267 41.406 84.1733 41.406 84.952C41.406 85.048 41.3687 85.1333 41.294 85.208C41.23 85.272 41.1553 85.304 41.07 85.304H37.87C37.6247 85.304 37.4007 85.2133 37.198 85.032C36.9953 84.8507 36.7233 84.76 36.382 84.76C35.87 84.76 35.614 84.9093 35.614 85.208C35.614 85.368 35.7367 85.5013 35.982 85.608C36.238 85.7147 36.7073 85.8107 37.39 85.896C38.9793 86.0987 40.11 86.472 40.782 87.016C41.4647 87.5493 41.806 88.3653 41.806 89.464C41.806 90.552 41.3047 91.4427 40.302 92.136C39.31 92.8187 38.0087 93.16 36.398 93.16C34.7873 93.16 33.5233 92.8293 32.606 92.168C31.6887 91.5067 31.23 90.7013 31.23 89.752C31.23 89.656 31.262 89.576 31.326 89.512C31.4007 89.4373 31.486 89.4 31.582 89.4H34.622C34.846 89.4 35.0913 89.5067 35.358 89.72C35.6353 89.9333 36.014 90.04 36.494 90.04C37.294 90.04 37.694 89.8907 37.694 89.592C37.694 89.4 37.55 89.256 37.262 89.16C36.974 89.0533 36.43 88.9467 35.63 88.84C32.878 88.4773 31.502 87.304 31.502 85.32Z" fill="black"/>
<path d="M47.0172 93H43.7532C43.6359 93 43.5346 92.9573 43.4492 92.872C43.3639 92.7867 43.3212 92.6853 43.3212 92.568V82.232C43.3212 82.1147 43.3639 82.0133 43.4492 81.928C43.5346 81.8427 43.6359 81.8 43.7532 81.8H47.0172C47.1346 81.8 47.2359 81.8427 47.3212 81.928C47.4066 82.0133 47.4492 82.1147 47.4492 82.232V92.568C47.4492 92.6853 47.4066 92.7867 47.3212 92.872C47.2359 92.9573 47.1346 93 47.0172 93Z" fill="black"/>
<path d="M49.9564 81.8H54.7244C56.2604 81.8 57.4604 82.1307 58.3244 82.792C59.1884 83.4533 59.6204 84.4293 59.6204 85.72C59.6204 87.0107 59.1884 87.9653 58.3244 88.584C57.471 89.2027 56.271 89.512 54.7244 89.512H53.6844V92.568C53.6844 92.6853 53.6417 92.7867 53.5564 92.872C53.471 92.9573 53.3697 93 53.2524 93H49.9564C49.839 93 49.7377 92.9573 49.6524 92.872C49.567 92.7867 49.5244 92.6853 49.5244 92.568V82.232C49.5244 82.1147 49.567 82.0133 49.6524 81.928C49.7377 81.8427 49.839 81.8 49.9564 81.8ZM53.6044 84.776V86.552H54.7244C54.9164 86.552 55.087 86.4827 55.2364 86.344C55.3857 86.1947 55.4604 85.9867 55.4604 85.72C55.4604 85.4533 55.4017 85.2293 55.2844 85.048C55.167 84.8667 54.9804 84.776 54.7244 84.776H53.6044Z" fill="black"/>
<path d="M61.5657 81.8H66.3337C67.8697 81.8 69.0697 82.1307 69.9337 82.792C70.7977 83.4533 71.2297 84.4293 71.2297 85.72C71.2297 87.0107 70.7977 87.9653 69.9337 88.584C69.0804 89.2027 67.8804 89.512 66.3337 89.512H65.2937V92.568C65.2937 92.6853 65.2511 92.7867 65.1657 92.872C65.0804 92.9573 64.9791 93 64.8617 93H61.5657C61.4484 93 61.3471 92.9573 61.2617 92.872C61.1764 92.7867 61.1337 92.6853 61.1337 92.568V82.232C61.1337 82.1147 61.1764 82.0133 61.2617 81.928C61.3471 81.8427 61.4484 81.8 61.5657 81.8ZM65.2137 84.776V86.552H66.3337C66.5257 86.552 66.6964 86.4827 66.8457 86.344C66.9951 86.1947 67.0697 85.9867 67.0697 85.72C67.0697 85.4533 67.0111 85.2293 66.8937 85.048C66.7764 84.8667 66.5897 84.776 66.3337 84.776H65.2137Z" fill="black"/>
<path d="M76.4391 93H73.1751C73.0578 93 72.9564 92.9573 72.8711 92.872C72.7858 92.7867 72.7431 92.6853 72.7431 92.568V82.232C72.7431 82.1147 72.7858 82.0133 72.8711 81.928C72.9564 81.8427 73.0578 81.8 73.1751 81.8H76.4391C76.5565 81.8 76.6578 81.8427 76.7431 81.928C76.8285 82.0133 76.8711 82.1147 76.8711 82.232V92.568C76.8711 92.6853 76.8285 92.7867 76.7431 92.872C76.6578 92.9573 76.5565 93 76.4391 93Z" fill="black"/>
<path d="M79.3782 81.8H84.1462C85.6822 81.8 86.8822 82.1307 87.7462 82.792C88.6102 83.4533 89.0422 84.4293 89.0422 85.72C89.0422 87.0107 88.6102 87.9653 87.7462 88.584C86.8929 89.2027 85.6929 89.512 84.1462 89.512H83.1062V92.568C83.1062 92.6853 83.0636 92.7867 82.9782 92.872C82.8929 92.9573 82.7916 93 82.6742 93H79.3782C79.2609 93 79.1596 92.9573 79.0742 92.872C78.9889 92.7867 78.9462 92.6853 78.9462 92.568V82.232C78.9462 82.1147 78.9889 82.0133 79.0742 81.928C79.1596 81.8427 79.2609 81.8 79.3782 81.8ZM83.0262 84.776V86.552H84.1462C84.3382 86.552 84.5089 86.4827 84.6582 86.344C84.8076 86.1947 84.8822 85.9867 84.8822 85.72C84.8822 85.4533 84.8236 85.2293 84.7062 85.048C84.5889 84.8667 84.4022 84.776 84.1462 84.776H83.0262Z" fill="black"/>
<path d="M90.9876 81.8H95.7556C97.2916 81.8 98.4916 82.1307 99.3556 82.792C100.22 83.4533 100.652 84.4293 100.652 85.72C100.652 87.0107 100.22 87.9653 99.3556 88.584C98.5023 89.2027 97.3023 89.512 95.7556 89.512H94.7156V92.568C94.7156 92.6853 94.6729 92.7867 94.5876 92.872C94.5023 92.9573 94.4009 93 94.2836 93H90.9876C90.8703 93 90.7689 92.9573 90.6836 92.872C90.5983 92.7867 90.5556 92.6853 90.5556 92.568V82.232C90.5556 82.1147 90.5983 82.0133 90.6836 81.928C90.7689 81.8427 90.8703 81.8 90.9876 81.8ZM94.6356 84.776V86.552H95.7556C95.9476 86.552 96.1183 86.4827 96.2676 86.344C96.4169 86.1947 96.4916 85.9867 96.4916 85.72C96.4916 85.4533 96.433 85.2293 96.3156 85.048C96.1983 84.8667 96.0116 84.776 95.7556 84.776H94.6356Z" fill="black"/>
<path d="M105.861 93H102.597C102.48 93 102.378 92.9573 102.293 92.872C102.208 92.7867 102.165 92.6853 102.165 92.568V82.232C102.165 82.1147 102.208 82.0133 102.293 81.928C102.378 81.8427 102.48 81.8 102.597 81.8H105.861C105.978 81.8 106.08 81.8427 106.165 81.928C106.25 82.0133 106.293 82.1147 106.293 82.232V92.568C106.293 92.6853 106.25 92.7867 106.165 92.872C106.08 92.9573 105.978 93 105.861 93Z" fill="black"/>
</svg>
