<svg width="106" height="99" viewBox="0 0 106 99" fill="none" xmlns="http://www.w3.org/2000/svg">
<path d="M82.368 49.32C83.072 49.32 83.68 49.576 84.192 50.088C84.704 50.6 84.96 51.208 84.96 51.912V66.408C84.96 67.112 84.704 67.72 84.192 68.232C83.68 68.744 83.072 69 82.368 69H24.48C23.776 69 23.168 68.744 22.656 68.232C22.144 67.72 21.888 67.112 21.888 66.408V54.6C21.888 53.64 22.016 52.712 22.272 51.816C22.528 50.92 23.232 50.12 24.384 49.416C35.264 42.568 43.392 37.096 48.768 33C54.208 28.904 56.928 25.736 56.928 23.496C56.928 22.28 56.704 21.352 56.256 20.712C55.808 20.008 54.816 19.656 53.28 19.656C51.488 19.656 50.24 20.104 49.536 21C48.832 21.896 48.352 22.824 48.096 23.784C47.904 24.744 47.744 25.384 47.616 25.704C47.424 26.216 47.136 26.536 46.752 26.664C46.432 26.728 46.08 26.76 45.696 26.76C45.312 26.76 45.056 26.76 44.928 26.76H25.44C24.8 26.76 24.224 26.536 23.712 26.088C23.264 25.576 23.04 25 23.04 24.36C23.04 19.624 24.288 15.496 26.784 11.976C29.344 8.39197 32.96 5.63997 37.632 3.71997C42.304 1.79997 47.776 0.839966 54.048 0.839966C63.392 0.839966 70.464 2.69597 75.264 6.40797C80.064 10.12 82.464 15.4 82.464 22.248C82.464 25.448 81.44 28.456 79.392 31.272C77.408 34.088 74.88 36.68 71.808 39.048C68.8 41.416 64.672 44.328 59.424 47.784L57.12 49.32H82.368Z" fill="#FF00FF"/>
<path d="M1.128 86.48C1.128 84.848 1.8 83.52 3.144 82.496C4.504 81.472 6.28 80.96 8.472 80.96C10.68 80.96 12.48 81.496 13.872 82.568C15.28 83.64 15.984 84.76 15.984 85.928C15.984 86.072 15.928 86.2 15.816 86.312C15.72 86.408 15.608 86.456 15.48 86.456H10.68C10.312 86.456 9.976 86.32 9.672 86.048C9.368 85.776 8.96 85.64 8.448 85.64C7.68 85.64 7.296 85.864 7.296 86.312C7.296 86.552 7.48 86.752 7.848 86.912C8.232 87.072 8.936 87.216 9.96 87.344C12.344 87.648 14.04 88.208 15.048 89.024C16.072 89.824 16.584 91.048 16.584 92.696C16.584 94.328 15.832 95.664 14.328 96.704C12.84 97.728 10.888 98.24 8.472 98.24C6.056 98.24 4.16 97.744 2.784 96.752C1.408 95.76 0.720001 94.552 0.720001 93.128C0.720001 92.984 0.768001 92.864 0.864001 92.768C0.976001 92.656 1.104 92.6 1.248 92.6H5.808C6.144 92.6 6.512 92.76 6.912 93.08C7.328 93.4 7.896 93.56 8.616 93.56C9.816 93.56 10.416 93.336 10.416 92.888C10.416 92.6 10.2 92.384 9.768 92.24C9.336 92.08 8.52 91.92 7.32 91.76C3.192 91.216 1.128 89.456 1.128 86.48Z" fill="#FF00FF"/>
<path d="M24.6169 93.32H32.0089C32.1849 93.32 32.3369 93.384 32.4649 93.512C32.5929 93.64 32.6569 93.792 32.6569 93.968V97.352C32.6569 97.528 32.5929 97.68 32.4649 97.808C32.3369 97.936 32.1849 98 32.0089 98H19.5049C19.3289 98 19.1769 97.936 19.0489 97.808C18.9209 97.68 18.8569 97.528 18.8569 97.352V81.848C18.8569 81.672 18.9209 81.52 19.0489 81.392C19.1769 81.264 19.3289 81.2 19.5049 81.2H31.8169C31.9929 81.2 32.1449 81.264 32.2729 81.392C32.4009 81.52 32.4649 81.672 32.4649 81.848V85.232C32.4649 85.408 32.4009 85.56 32.2729 85.688C32.1449 85.816 31.9929 85.88 31.8169 85.88H24.6169V87.392H31.2889C31.4649 87.392 31.6169 87.456 31.7449 87.584C31.8729 87.712 31.9369 87.864 31.9369 88.04V91.16C31.9369 91.336 31.8729 91.488 31.7449 91.616C31.6169 91.744 31.4649 91.808 31.2889 91.808H24.6169V93.32Z" fill="#FF00FF"/>
<path d="M41.3044 87.584V91.616C41.3044 92.912 41.8964 93.56 43.0804 93.56C43.9924 93.56 44.5924 93.128 44.8804 92.264C44.9604 91.992 45.0564 91.808 45.1684 91.712C45.2964 91.616 45.4964 91.568 45.7684 91.568H50.6644C50.8084 91.568 50.9284 91.624 51.0244 91.736C51.1364 91.832 51.1924 91.952 51.1924 92.096C51.1924 93.488 50.7924 94.656 49.9924 95.6C48.5204 97.36 46.2244 98.24 43.1044 98.24C40.6564 98.24 38.7044 97.704 37.2484 96.632C35.7924 95.544 35.0644 93.88 35.0644 91.64V87.56C35.0644 85.368 35.8084 83.72 37.2964 82.616C38.7844 81.512 40.7204 80.96 43.1044 80.96C46.2244 80.96 48.5204 81.84 49.9924 83.6C50.7924 84.544 51.1924 85.712 51.1924 87.104C51.1924 87.248 51.1364 87.376 51.0244 87.488C50.9284 87.584 50.8084 87.632 50.6644 87.632H45.7684C45.5124 87.632 45.3204 87.584 45.1924 87.488C45.0804 87.392 44.9764 87.208 44.8804 86.936C44.5764 86.072 43.9764 85.64 43.0804 85.64C41.8964 85.64 41.3044 86.288 41.3044 87.584Z" fill="#FF00FF"/>
<path d="M55.1781 82.736C56.6501 81.552 58.5941 80.96 61.0101 80.96C63.4261 80.96 65.3621 81.56 66.8181 82.76C68.2901 83.944 69.0261 85.616 69.0261 87.776V91.52C69.0261 93.712 68.2981 95.384 66.8421 96.536C65.4021 97.672 63.4581 98.24 61.0101 98.24C58.5621 98.24 56.6101 97.672 55.1541 96.536C53.7141 95.384 52.9941 93.712 52.9941 91.52V87.776C52.9941 85.6 53.7221 83.92 55.1781 82.736ZM59.7141 93.08C60.0341 93.4 60.4661 93.56 61.0101 93.56C61.5541 93.56 61.9861 93.4 62.3061 93.08C62.6261 92.76 62.7861 92.272 62.7861 91.616V87.584C62.7861 86.944 62.6261 86.464 62.3061 86.144C61.9861 85.808 61.5541 85.64 61.0101 85.64C60.4661 85.64 60.0341 85.808 59.7141 86.144C59.3941 86.464 59.2341 86.944 59.2341 87.584V91.616C59.2341 92.272 59.3941 92.76 59.7141 93.08Z" fill="#FF00FF"/>
<path d="M81.7896 81.2H86.1336C86.3096 81.2 86.4616 81.264 86.5896 81.392C86.7176 81.52 86.7816 81.672 86.7816 81.848V97.352C86.7816 97.528 86.7176 97.68 86.5896 97.808C86.4616 97.936 86.3096 98 86.1336 98H82.3416C81.9256 98 81.5976 97.816 81.3576 97.448L77.3016 91.328V97.352C77.3016 97.528 77.2376 97.68 77.1096 97.808C76.9816 97.936 76.8296 98 76.6536 98H72.3096C72.1336 98 71.9816 97.936 71.8536 97.808C71.7256 97.68 71.6616 97.528 71.6616 97.352V81.848C71.6616 81.672 71.7256 81.52 71.8536 81.392C71.9816 81.264 72.1336 81.2 72.3096 81.2H76.1016C76.5496 81.2 76.8776 81.384 77.0856 81.752L81.1416 88.4V81.848C81.1416 81.672 81.2056 81.52 81.3336 81.392C81.4616 81.264 81.6136 81.2 81.7896 81.2Z" fill="#FF00FF"/>
<path d="M90.5439 81.2H97.4559C99.7919 81.2 101.712 81.784 103.216 82.952C104.736 84.104 105.496 85.72 105.496 87.8V91.376C105.496 93.552 104.76 95.2 103.288 96.32C101.816 97.44 99.8799 98 97.4799 98H90.5439C90.3679 98 90.2159 97.936 90.0879 97.808C89.9599 97.68 89.8959 97.528 89.8959 97.352V81.848C89.8959 81.672 89.9599 81.52 90.0879 81.392C90.2159 81.264 90.3679 81.2 90.5439 81.2ZM95.8959 85.88V93.32H97.4559C97.9999 93.32 98.4319 93.16 98.7519 92.84C99.0879 92.504 99.2559 92.016 99.2559 91.376V87.8C99.2559 86.52 98.6559 85.88 97.4559 85.88H95.8959Z" fill="#FF00FF"/>
</svg>
