<?xml version="1.0" encoding="UTF-8" standalone="no"?>
<!DOCTYPE svg PUBLIC "-//W3C//DTD SVG 1.1//EN" "http://www.w3.org/Graphics/SVG/1.1/DTD/svg11.dtd">
<svg xmlns="http://www.w3.org/2000/svg" width="240" height="240" viewBox="0 0 240 240" fill="none">
	<rect width="240" height="240" fill="#FE3EFE"/>
	<path d="M121.193 104.747L124.277 109.507H103.744C99.5408 109.507 96.133 112.915 96.133 117.119V129.018C96.133 133.222 99.5408 136.63 103.744 136.63H124.423L121.068 141.809C119.957 143.524 119.441 145.693 119.441 147.793C119.441 149.893 119.957 152.063 121.068 153.778L130.237 167.933C131.354 169.656 132.968 170.727 134.779 170.727C136.591 170.727 138.205 169.656 139.321 167.933L154.183 144.991C154.637 144.585 155.049 144.097 155.409 143.541L164.579 129.386C165.69 127.671 166.205 125.502 166.205 123.402C166.205 121.57 165.813 119.685 164.975 118.095C164.819 117.775 164.645 117.465 164.453 117.17L155.283 103.015C155.158 102.821 155.026 102.636 154.889 102.46L139.447 78.6231C138.331 76.8996 136.717 75.8287 134.905 75.8287C133.093 75.8287 131.48 76.8996 130.363 78.6231L121.193 92.778C120.082 94.4928 119.567 96.6628 119.567 98.7626C119.567 100.862 120.082 103.032 121.193 104.747Z" fill="#FE0000" stroke="white" stroke-width="2.73081"/>
	<circle opacity="0.9" cx="189.663" cy="121.23" r="15.7022" fill="#1E1E1E" stroke="white" stroke-width="2.73081"/>
	<path d="M102.078 104.407L105.161 109.167H84.6287C80.425 109.167 77.0173 112.575 77.0173 116.779V128.678C77.0173 132.882 80.425 136.29 84.6287 136.29H105.307L101.952 141.469C100.841 143.184 100.326 145.354 100.326 147.453C100.326 149.553 100.841 151.723 101.952 153.438L111.122 167.593C112.238 169.316 113.852 170.387 115.664 170.387C117.475 170.387 119.089 169.316 120.206 167.593L135.068 144.651C135.521 144.245 135.933 143.757 136.293 143.201L145.463 129.046C146.574 127.331 147.089 125.162 147.089 123.062C147.089 121.23 146.697 119.345 145.86 117.755C145.703 117.435 145.529 117.125 145.337 116.83L136.168 102.675C136.042 102.481 135.911 102.296 135.773 102.12L120.331 78.2831C119.215 76.5597 117.601 75.4888 115.789 75.4888C113.978 75.4888 112.364 76.5597 111.247 78.2831L102.078 92.4381C100.967 94.1529 100.451 96.3228 100.451 98.4226C100.451 100.522 100.967 102.692 102.078 104.407Z" fill="#FF9900" stroke="white" stroke-width="2.73081"/>
	<path d="M76.2916 104.379L80.0668 109.329H54.5898C50.3861 109.329 46.9783 112.736 46.9783 116.94V128.84C46.9783 133.043 50.3861 136.451 54.5898 136.451H80.2384L76.1435 141.82C73.6787 145.052 73.6787 150.177 76.1435 153.409L87.3593 168.116C88.6266 169.777 90.3786 170.71 92.2327 170.71C94.0868 170.71 95.8387 169.777 97.1061 168.116L114.634 145.133C115.149 144.749 115.624 144.277 116.045 143.724L127.261 129.018C129.568 125.993 129.716 121.31 127.705 118.073C127.526 117.763 127.329 117.465 127.113 117.181L115.897 102.475C115.752 102.284 115.6 102.103 115.442 101.931L97.2541 78.0833C95.9867 76.4216 94.2348 75.4888 92.3807 75.4888C90.5266 75.4888 88.7747 76.4216 87.5073 78.0833L76.2916 92.7896C73.8268 96.0215 73.8267 101.147 76.2916 104.379Z" fill="#05C405" stroke="white" stroke-width="2.73081"/>
</svg>


