<?xml version="1.0" encoding="utf-8" standalone="no"?>
<!DOCTYPE svg PUBLIC "-//W3C//DTD SVG 1.1//EN" "http://www.w3.org/Graphics/SVG/1.1/DTD/svg11.dtd">
<svg xmlns="http://www.w3.org/2000/svg" width="192" height="192" viewBox="0 0 192 192" fill="none">
	<rect width="192" height="192" fill="#FE3EFE"/>
	<path d="M92.3537 82.4283L94.6123 85.9147H79.5745C76.4958 85.9147 74 88.4105 74 91.4892V100.204C74 103.283 76.4958 105.779 79.5745 105.779H94.7188L92.2616 109.572C91.448 110.828 91.0707 112.417 91.0707 113.955C91.0707 115.492 91.448 117.082 92.2616 118.338L98.9775 128.704C99.7952 129.967 100.977 130.751 102.304 130.751C103.631 130.751 104.813 129.967 105.63 128.704L116.515 111.902C116.847 111.605 117.149 111.248 117.413 110.84L124.129 100.474C124.942 99.2177 125.32 97.6285 125.32 96.0907C125.32 94.7491 125.032 93.3684 124.419 92.2041C124.304 91.9696 124.177 91.743 124.037 91.5263L117.321 81.1595C117.229 81.0178 117.133 80.8822 117.032 80.7531L105.722 63.2955C104.905 62.0333 103.723 61.249 102.396 61.249C101.069 61.249 99.8873 62.0333 99.0696 63.2955L92.3537 73.6624C91.5401 74.9183 91.1628 76.5075 91.1628 78.0453C91.1628 79.5832 91.5401 81.1724 92.3537 82.4283Z" fill="#FE0000" stroke="white" stroke-width="2"/>
	<circle opacity="0.9" cx="142.5" cy="94.5" r="11.5" fill="#1E1E1E" stroke="white" stroke-width="2"/>
	<path d="M78.3537 82.1793L80.6123 85.6657H65.5745C62.4958 85.6657 60 88.1615 60 91.2402V99.9552C60 103.034 62.4958 105.53 65.5745 105.53H80.7188L78.2616 109.323C77.448 110.579 77.0707 112.168 77.0707 113.706C77.0707 115.243 77.448 116.833 78.2616 118.089L84.9775 128.455C85.7952 129.718 86.977 130.502 88.304 130.502C89.6309 130.502 90.8127 129.718 91.6304 128.455L102.515 111.653C102.847 111.356 103.149 110.999 103.413 110.591L110.129 100.225C110.942 98.9687 111.32 97.3795 111.32 95.8417C111.32 94.5001 111.032 93.1195 110.419 91.9551C110.304 91.7206 110.177 91.494 110.037 91.2773L103.321 80.9105C103.229 80.7689 103.133 80.6332 103.032 80.5041L91.7225 63.0466C90.9048 61.7843 89.723 61 88.396 61C87.0691 61 85.8873 61.7843 85.0696 63.0466L78.3537 73.4134C77.5401 74.6693 77.1628 76.2585 77.1628 77.7964C77.1628 79.3342 77.5401 80.9234 78.3537 82.1793Z" fill="#FF9900" stroke="white" stroke-width="2"/>
	<path d="M59.4685 82.1584L62.2334 85.7838H43.5745C40.4958 85.7838 38 88.2796 38 91.3583V100.073C38 103.152 40.4958 105.648 43.5745 105.648H62.3591L59.3601 109.58C57.5549 111.947 57.5549 115.701 59.3601 118.068L67.5743 128.838C68.5025 130.055 69.7856 130.738 71.1435 130.738C72.5014 130.738 73.7845 130.055 74.7127 128.838L87.5499 112.006C87.9268 111.725 88.2747 111.379 88.5834 110.974L96.7976 100.204C98.4871 97.9885 98.5954 94.5588 97.1226 92.1879C96.9921 91.9608 96.8476 91.7424 96.6892 91.5348L88.475 80.7642C88.3684 80.6244 88.2571 80.4916 88.1415 80.3661L74.8211 62.9002C73.8929 61.6832 72.6098 61 71.2519 61C69.894 61 68.6109 61.6832 67.6827 62.9002L59.4685 73.6708C57.6633 76.0378 57.6633 79.7914 59.4685 82.1584Z" fill="#05C405" stroke="white" stroke-width="2"/>
</svg>
